<?xml version="1.0" encoding="UTF-8" standalone="no"?>
<svg width="652px" height="290px" viewBox="0 0 652 290" version="1.1" xmlns="http://www.w3.org/2000/svg" xmlns:xlink="http://www.w3.org/1999/xlink" xmlns:sketch="http://www.bohemiancoding.com/sketch/ns">
    <!-- Generator: Sketch 3.3.2 (12043) - http://www.bohemiancoding.com/sketch -->
    <title>Rounded with lines 3</title>
    <desc>Created with Sketch.</desc>
    <defs>
        <path id="path-1" d="M156.760318,199.00768 C158.971193,198.906893 159.653593,200.225606 158.280645,201.957977 L156.703648,203.947811 C155.332426,205.678003 152.428077,207.043668 150.220869,206.998198 L34,204.603976 L156.760318,199.00768 Z"></path>
        <path id="path-2" d="M486.239682,199.00768 C484.028807,198.906893 483.346407,200.225606 484.719355,201.957977 L486.296352,203.947811 C487.667574,205.678003 490.571923,207.043668 492.779131,206.998198 L609,204.603976 L486.239682,199.00768 L486.239682,199.00768 Z"></path>
    </defs>
    <g id="Page-1" stroke="none" stroke-width="1" fill="none" fill-rule="evenodd" sketch:type="MSPage">
        <g id="Rounded-with-lines-3" sketch:type="MSLayerGroup" transform="translate(-3.000000, -6.000000)">
            <g id="Path-15">
                <use fill="none" sketch:type="MSShapeGroup" xlink:href="#path-1"></use>
                <use fill="#728F9C" fill-rule="evenodd" xlink:href="#path-1"></use>
            </g>
            <g id="Path-16">
                <use fill="none" sketch:type="MSShapeGroup" xlink:href="#path-2"></use>
                <use fill="#728F9C" fill-rule="evenodd" xlink:href="#path-2"></use>
            </g>
            <path d="M65.2284513,133.423249 L52.9111732,119.515445 L22.6684278,131.146792 L22.8995455,149.702928 L6.65705838,155.949782 L6.51947358,65.9792461 L21.285371,60.3002883 L81.4709384,127.176396 L65.2284513,133.423249 L65.2284513,133.423249 Z M27.1323919,90.1937907 C26.3667639,89.4000959 25.5036936,88.4346363 24.543155,87.2973828 C23.5826163,86.1601294 22.7209497,85.0895012 21.9581291,84.0854661 C22.1011435,85.3278784 22.188064,86.6964737 22.2188933,88.1912929 C22.2497227,89.6861121 22.2469003,90.9845937 22.2104261,92.0867767 L22.290033,115.472302 L42.6888467,107.626927 L27.1323919,90.1937907 L27.1323919,90.1937907 Z M107.250833,124.61217 L85.3045753,43.5054514 L120.088837,34.0933533 C125.216949,32.7057634 129.735806,32.2822489 133.645543,32.8227971 C137.55528,33.3633453 140.932635,34.5537597 143.777709,36.3940759 C146.622782,38.2343921 148.939261,40.5515505 150.727214,43.3456205 C152.515168,46.1396906 153.832544,49.1015095 154.679382,52.231166 C155.209931,54.1919147 155.521887,56.2421299 155.61526,58.3818731 C155.708633,60.5216163 155.54161,62.6710858 155.114188,64.8303461 C154.686765,66.9896064 153.962247,69.0977084 152.940611,71.1547153 C151.918976,73.2117222 150.551569,75.149812 148.83835,76.9690429 C147.12513,78.7882738 145.036318,80.4157297 142.571849,81.8514592 C140.107381,83.2871888 137.234948,84.4488609 133.954465,85.3365103 L114.837261,90.5093382 L122.917891,120.3729 L107.250833,124.61217 L107.250833,124.61217 Z M130.608171,70.2776386 C132.606627,69.7368866 134.197827,68.9623636 135.381819,67.9540464 C136.565812,66.9457292 137.444257,65.8177647 138.01718,64.5701191 C138.590104,63.3224735 138.891646,62.0066422 138.921815,60.6225855 C138.951985,59.2385288 138.793623,57.9055065 138.446726,56.6234785 C138.130437,55.4545706 137.641148,54.2819091 136.978845,53.1054588 C136.316542,51.9290086 135.437217,50.9225855 134.340842,50.0861594 C133.244468,49.2497332 131.906901,48.6809214 130.328101,48.3797068 C128.749301,48.0784922 126.904141,48.2135631 124.792566,48.7849237 L104.996644,54.1414023 L110.81225,75.6341171 L130.608171,70.2776386 L130.608171,70.2776386 Z M195.438973,105.399109 L180.205202,22.7681806 L215.643153,16.2348687 C220.867636,15.2716873 225.405995,15.2194768 229.258367,16.0782356 C233.110738,16.9369944 236.379321,18.3998615 239.064212,20.4668807 C241.749103,22.5338999 243.868142,25.032894 245.421392,27.963938 C246.974642,30.8949819 248.045163,33.9546936 248.632987,37.1431646 C249.001262,39.140761 249.144355,41.2096311 249.06227,43.349837 C248.980185,45.4900429 248.637782,47.6186283 248.035051,49.7356571 C247.43232,51.8526859 246.537678,53.8944098 245.351098,55.8608901 C244.164518,57.8273703 242.643061,59.6470301 240.786681,61.3199239 C238.9303,62.9928177 236.715285,64.4438365 234.141567,65.6730237 C231.56785,66.9022109 228.609969,67.8248671 225.267837,68.4410199 L205.79137,72.0316856 L211.400457,102.456462 L195.438973,105.399109 L195.438973,105.399109 Z M223.165388,53.1587749 C225.2014,52.7834174 226.850658,52.1417383 228.113212,51.2337181 C229.375765,50.325698 230.34359,49.2734221 231.016715,48.0768587 C231.689839,46.8802953 232.098075,45.5935615 232.241432,44.2166187 C232.38479,42.8396758 232.336072,41.4981642 232.095277,40.1920435 C231.875728,39.0011688 231.484067,37.7923924 230.920283,36.5656782 C230.356499,35.338964 229.562503,34.2639425 228.538271,33.3405813 C227.51404,32.4172202 226.22752,31.7408329 224.678674,31.3113993 C223.129827,30.8819656 221.279803,30.8655511 219.128545,31.2621552 L198.960606,34.9803001 L202.997449,56.8769199 L223.165388,53.1587749 L223.165388,53.1587749 Z M285.006839,94.4571029 L278.250311,10.7057604 L294.42822,9.40062909 L299.931445,77.6165064 L340.347016,74.3560341 L341.600319,89.8914993 L285.006839,94.4571029 L285.006839,94.4571029 Z M378.636561,93.9089327 L379.349952,61.1627963 L349.36072,9.22776912 L367.754793,9.6284935 L387.744211,44.4080579 L409.229327,10.5320376 L427.6234,10.932762 L395.400831,61.512473 L394.68744,94.2586094 L378.636561,93.9089327 L378.636561,93.9089327 Z M533.346679,48.5916012 L520.888379,115.826009 L504.987183,112.879573 L517.445482,45.6451653 L493.824139,41.2682134 L496.674496,25.885534 L559.818378,37.5858736 L556.968022,52.9685531 L533.346679,48.5916012 L533.346679,48.5916012 Z M601.943062,139.275767 C597.5647,138.108559 593.792775,136.486517 590.627176,134.409593 C587.461577,132.332669 584.812454,129.94876 582.679729,127.257793 C580.547004,124.566826 578.896774,121.620467 577.728992,118.418628 C576.561209,115.216789 575.797917,111.90048 575.439091,108.469601 C575.080266,105.038722 575.077486,101.561318 575.430752,98.0372839 C575.784017,94.5132498 576.408406,91.071654 577.303936,87.7123931 C578.189404,84.3908768 579.356049,81.1140517 580.803905,77.8818196 C582.251762,74.6495874 583.985203,71.6350344 586.004281,68.8380701 C588.023359,66.0411059 590.336198,63.5448485 592.942866,61.3492233 C595.549534,59.1535981 598.447449,57.4197086 601.636699,56.1475027 C604.825948,54.8752969 608.310216,54.1264597 612.089605,53.9009689 C615.868995,53.6754781 619.94781,54.1463295 624.326172,55.3135373 C628.704534,56.4807451 632.467023,58.1002711 635.61375,60.1721639 C638.760477,62.2440568 641.390727,64.6229355 643.50458,67.3088715 C645.618434,69.9948075 647.259227,72.9386507 648.427009,76.1404896 C649.594792,79.3423284 650.358084,82.6586375 650.71691,86.0895164 C651.075735,89.5203953 651.078515,92.9977996 650.725249,96.5218337 C650.371984,100.045868 649.752626,103.468592 648.867158,106.790108 C647.971628,110.149369 646.799952,113.445066 645.352096,116.677298 C643.904239,119.90953 642.170798,122.924083 640.15172,125.721047 C638.132642,128.518012 635.819803,131.014269 633.213135,133.209894 C630.606467,135.405519 627.717988,137.141924 624.547611,138.419161 C621.377233,139.696398 617.911838,140.450266 614.151321,140.680788 C610.390803,140.91131 606.321424,140.442974 601.943062,139.275767 L601.943062,139.275767 L601.943062,139.275767 Z M605.972927,124.159168 C609.5964,125.125133 612.870617,125.0884 615.795679,124.048967 C618.72074,123.009535 621.299733,121.372543 623.532734,119.137945 C625.765736,116.903346 627.642004,114.300812 629.161593,111.330264 C630.681183,108.359716 631.833384,105.402451 632.61823,102.45838 C633.171648,100.382432 633.591064,98.2404753 633.876491,96.0324448 C634.161917,93.8244143 634.247932,91.6441104 634.134538,89.4914676 C634.021144,87.3388248 633.688845,85.2491362 633.137633,83.2223391 C632.586421,81.195542 631.767253,79.339898 630.680106,77.6553514 C629.592958,75.9708049 628.196978,74.4970397 626.492123,73.2340118 C624.787269,71.9709838 622.727048,71.0174958 620.3114,70.3735191 C617.858007,69.7194802 615.572644,69.5347119 613.455241,69.8192086 C611.337839,70.1037053 609.373983,70.7222132 607.563614,71.6747509 C605.753244,72.6272885 604.102073,73.8546959 602.610051,75.3570099 C601.118029,76.8593239 599.784564,78.5251572 598.609614,80.3545596 C597.434664,82.1839619 596.428954,84.0988753 595.592452,86.099357 C594.755951,88.0998387 594.076095,90.0814069 593.552864,92.0441211 C592.727769,95.1391704 592.229804,98.3719111 592.058955,101.74244 C591.888105,105.112969 592.222373,108.294693 593.061769,111.287709 C593.901166,114.280724 595.347559,116.930185 597.400993,119.236172 C599.454428,121.542159 602.31171,123.183141 605.972927,124.159168 L605.972927,124.159168 L605.972927,124.159168 Z" id="APPLY-TO" fill="#728F9C" sketch:type="MSShapeGroup" transform="translate(328.753802, 82.588776) rotate(1.500000) translate(-328.753802, -82.588776) "></path>
            <path d="M207.72,232.08 C208.360003,233.146672 209.026663,233.759999 209.72,233.92 C210.413337,234.080001 211.399994,233.893336 212.68,233.36 C215.666682,232.186661 219.426644,229.760018 223.96,226.08 C228.493356,222.399982 233.266642,217.920026 238.28,212.64 C243.293358,207.359974 248.333308,201.493366 253.4,195.04 C258.466692,188.586634 263.133312,181.973367 267.4,175.2 C271.666688,168.426633 275.293318,161.7067 278.28,155.04 C281.266682,148.3733 283.186662,142.213362 284.04,136.56 C284.253334,135.493328 284.73333,135.279997 285.48,135.92 C286.866674,137.093339 287.85333,138.399993 288.44,139.84 C289.02667,141.280007 289.399999,142.799992 289.56,144.4 C289.720001,146.000008 289.720001,147.679991 289.56,149.44 C289.399999,151.200009 289.160002,152.933325 288.84,154.64 C287.879995,159.653358 285.986681,165.146637 283.16,171.12 C280.333319,177.093363 276.840021,183.11997 272.68,189.2 C268.519979,195.28003 263.933358,201.27997 258.92,207.2 C253.906642,213.12003 248.813359,218.586642 243.64,223.6 C238.466641,228.613358 233.373358,232.959982 228.36,236.64 C223.346642,240.320018 218.813354,243.013325 214.76,244.72 C212.626656,245.573338 210.973339,245.946667 209.8,245.84 C208.626661,245.733333 207.400006,245.093339 206.12,243.92 C203.026651,241.466654 200.52001,238.080022 198.6,233.76 C196.67999,229.439978 195.72,224.293363 195.72,218.32 C195.72,213.413309 196.75999,208.613357 198.84,203.92 C200.92001,199.226643 203.533318,194.666689 206.68,190.24 C209.826682,185.813311 213.239982,181.546687 216.92,177.44 C220.600018,173.333313 224.013318,169.413352 227.16,165.68 C230.306682,161.946648 232.91999,158.480016 235,155.28 C237.08001,152.079984 238.12,149.093347 238.12,146.32 C238.12,142.373314 235.773357,140.4 231.08,140.4 C229.586659,140.4 227.773344,140.613331 225.64,141.04 C223.506656,141.466669 221.320011,142.026663 219.08,142.72 C216.839989,143.413337 214.600011,144.13333 212.36,144.88 C210.119989,145.62667 208.093342,146.319997 206.28,146.96 C204.466658,147.600003 202.493344,147.946666 200.36,148 C198.226656,148.053334 196.253342,147.70667 194.44,146.96 C193.266661,146.426664 192.120006,145.813337 191,145.12 C189.879994,144.426663 188.893338,143.653338 188.04,142.8 C187.186662,141.946662 187.293328,141.253336 188.36,140.72 C191.560016,139.119992 194.973315,137.65334 198.6,136.32 C202.226685,134.98666 205.933314,133.840005 209.72,132.88 C213.506686,131.919995 217.239982,131.173336 220.92,130.64 C224.600018,130.106664 228.039984,129.84 231.24,129.84 C237.960034,129.84 242.973317,131.146654 246.28,133.76 C249.586683,136.373346 251.24,139.759979 251.24,143.92 C251.24,147.440018 250.120011,151.306646 247.88,155.52 C245.639989,159.733354 242.81335,164.079978 239.4,168.56 C235.98665,173.040022 232.333353,177.65331 228.44,182.4 C224.546647,187.14669 220.89335,191.866643 217.48,196.56 C214.06665,201.253357 211.240011,205.813311 209,210.24 C206.759989,214.666689 205.64,218.853314 205.64,222.8 C205.64,224.613342 205.853331,226.373325 206.28,228.08 C206.706669,229.786675 207.186664,231.119995 207.72,232.08 L207.72,232.08 Z M277,216.4 C279.453346,215.759997 281.746656,214.906672 283.88,213.84 C286.013344,212.773328 287.879992,211.600006 289.48,210.32 C291.080008,209.039994 292.439994,207.760006 293.56,206.48 C294.680006,205.199994 295.453331,203.973339 295.88,202.8 C296.093334,202.159997 296.146667,201.573336 296.04,201.04 C295.933333,200.506664 295.50667,200.24 294.76,200.24 C293.586661,200.24 292.173342,200.693329 290.52,201.6 C288.866658,202.506671 287.213342,203.733326 285.56,205.28 C283.906658,206.826674 282.306674,208.55999 280.76,210.48 C279.213326,212.40001 277.960005,214.373323 277,216.4 L277,216.4 Z M413.96,217.68 C412.573326,219.386675 410.893343,221.386655 408.92,223.68 C406.946657,225.973345 404.760012,228.133323 402.36,230.16 C399.959988,232.186677 397.373347,233.919993 394.6,235.36 C391.826653,236.800007 389.000014,237.52 386.12,237.52 C383.239986,237.52 381.053341,236.613342 379.56,234.8 C378.066659,232.986658 377.69333,230.693347 378.44,227.92 C375.346651,231.013349 371.960018,233.679989 368.28,235.92 C364.599982,238.160011 361.160016,239.28 357.96,239.28 C355.933323,239.28 354.173341,238.693339 352.68,237.52 C351.186659,236.346661 350.44,234.480013 350.44,231.92 C350.44,231.59519 350.4509,231.26715 350.4727,230.935882 C350.328874,231.07739 350.18464,231.218763 350.04,231.36 C345.506644,235.786689 341.266686,239.866648 337.32,243.6 C330.493299,250.106699 323.853366,257.573291 317.4,266 C310.946634,274.426709 305.373357,283.333286 300.68,292.72 C299.93333,294.106674 298.920006,294.42667 297.64,293.68 C296.999997,293.253331 296.360003,292.800002 295.72,292.32 C295.079997,291.839998 294.493336,291.173338 293.96,290.32 C292.893328,289.039994 292.439999,287.386677 292.6,285.36 C292.760001,283.333323 293.746658,280.666683 295.56,277.36 C297.48001,273.733315 300.199982,269.680022 303.72,265.2 C307.240018,260.719978 310.946647,256.10669 314.84,251.36 C318.733353,246.61331 322.599981,241.920023 326.44,237.28 C330.280019,232.639977 333.586653,228.293354 336.36,224.24 C332.839982,228.080019 328.973354,231.386653 324.76,234.16 C320.546646,236.933347 316.573352,238.32 312.84,238.32 C310.386654,238.32 308.20001,237.65334 306.28,236.32 C304.35999,234.98666 303.4,232.720016 303.4,229.52 C303.4,229.258057 303.406226,228.995409 303.418677,228.732057 L303.418677,228.732057 C302.303842,229.731961 301.124285,230.714607 299.88,231.68 C296.786651,234.080012 293.346686,236.133325 289.56,237.84 C285.773314,239.546675 281.640022,240.4 277.16,240.4 C272.039974,240.4 268.120014,239.120013 265.4,236.56 C262.679986,233.999987 261.32,230.693354 261.32,226.64 C261.32,223.119982 262.386656,219.440019 264.52,215.6 C266.653344,211.759981 269.453316,208.240016 272.92,205.04 C276.386684,201.839984 280.279978,199.226677 284.6,197.2 C288.920022,195.173323 293.319978,194.16 297.8,194.16 C300.893349,194.16 303.186659,194.879993 304.68,196.32 C306.173341,197.760007 306.813334,199.653322 306.6,202 C306.386666,204.240011 305.453342,206.453322 303.8,208.64 C302.146658,210.826678 299.933347,212.799991 297.16,214.56 C294.386653,216.320009 291.160018,217.733328 287.48,218.8 C283.799982,219.866672 279.826688,220.293334 275.56,220.08 C275.239998,221.040005 275.08,221.999995 275.08,222.96 C274.866666,225.200011 275.399994,227.066659 276.68,228.56 C277.960006,230.053341 279.93332,230.8 282.6,230.8 C286.01335,230.8 289.266651,230.080007 292.36,228.64 C295.453349,227.199993 298.306654,225.493343 300.92,223.52 C303.263294,221.750574 305.327837,219.916852 307.113677,218.01879 C307.283307,217.746518 307.458748,217.473588 307.64,217.2 C310.466681,212.933312 314.013312,209.013351 318.28,205.44 C322.546688,201.866649 327.213308,198.933345 332.28,196.64 C337.346692,194.346655 342.119978,193.2 346.6,193.2 C349.586682,193.2 351.74666,193.893326 353.08,195.28 C354.41334,196.666674 355.08,198.266658 355.08,200.08 C355.08,201.360006 354.78667,202.559994 354.2,203.68 C353.61333,204.800006 352.840005,205.813329 351.88,206.72 C350.919995,207.626671 349.853339,208.346664 348.68,208.88 C347.506661,209.413336 346.386672,209.68 345.32,209.68 C344.039994,209.68 343.000004,209.440002 342.2,208.96 C341.399996,208.479998 341,207.760005 341,206.8 C341,205.626661 341.319997,204.560005 341.96,203.6 C342.600003,202.639995 342.973333,201.733338 343.08,200.88 C343.08,200.13333 342.653338,199.76 341.8,199.76 C340.306659,199.76 338.333346,200.559992 335.88,202.16 C333.426654,203.760008 331.000012,205.759988 328.6,208.16 C326.199988,210.560012 324.120009,213.119986 322.36,215.84 C320.599991,218.560014 319.72,221.039989 319.72,223.28 C319.72,225.413344 320.786656,226.48 322.92,226.48 C324.306674,226.48 325.773326,226.10667 327.32,225.36 C328.866674,224.61333 330.386659,223.680006 331.88,222.56 C333.373341,221.439994 334.839993,220.293339 336.28,219.12 C337.720007,217.946661 338.973328,216.880005 340.04,215.92 C341.000005,215.17333 342.066661,215.226662 343.24,216.08 C344.413339,216.933338 345.319997,217.999994 345.96,219.28 C346.493336,220.240005 346.600002,221.199995 346.28,222.16 C345.959998,223.120005 345.42667,224.239994 344.68,225.52 C343.826662,227.013341 342.893338,228.506659 341.88,230 C340.866662,231.493341 339.773339,233.093325 338.6,234.8 C342.653354,231.493317 346.599981,227.973352 350.44,224.24 C351.681644,223.032846 352.906555,221.786666 354.114735,220.501455 L354.114735,220.501455 C354.321129,220.150213 354.536217,219.796395 354.76,219.44 C357.640014,214.85331 361.293311,210.533354 365.72,206.48 C370.146689,202.426646 374.999974,199.040014 380.28,196.32 C385.560026,193.599986 390.653309,192.24 395.56,192.24 C398.333347,192.24 400.38666,192.746662 401.72,193.76 C403.05334,194.773338 403.72,195.919994 403.72,197.2 C403.613333,199.226677 402.840007,201.253323 401.4,203.28 C399.959993,205.306677 398.066678,206.426666 395.72,206.64 C393.906658,206.853334 392.600004,206.613337 391.8,205.92 C390.999996,205.226663 390.6,204.400005 390.6,203.44 C390.6,202.586662 390.786665,201.78667 391.16,201.04 C391.533335,200.29333 391.72,199.54667 391.72,198.8 C391.72,198.266664 391.400003,198 390.76,198 C389.266659,198 387.18668,198.95999 384.52,200.88 C381.85332,202.80001 379.213346,205.119986 376.6,207.84 C373.986654,210.560014 371.72001,213.439985 369.8,216.48 C367.87999,219.520015 366.92,222.213322 366.92,224.56 C366.92,225.733339 367.159998,226.506665 367.64,226.88 C368.120002,227.253335 368.73333,227.44 369.48,227.44 C371.080008,227.44 373.026655,226.693341 375.32,225.2 C377.613345,223.706659 379.933322,221.840011 382.28,219.6 C383.986675,218.106659 385.613326,216.480009 387.16,214.72 C388.706674,212.959991 390.066661,211.493339 391.24,210.32 C392.413339,209.146661 393.586661,209.253326 394.76,210.64 C395.400003,211.493338 395.933331,212.453328 396.36,213.52 C396.786669,214.586672 396.62667,215.759994 395.88,217.04 C394.813328,218.853342 393.720006,220.586658 392.6,222.24 C391.479994,223.893342 390.92,225.306661 390.92,226.48 C390.92,227.546672 391.453328,228.08 392.52,228.08 C394.013341,228.08 395.693324,227.546672 397.56,226.48 C399.426676,225.413328 401.293324,224.080008 403.16,222.48 C405.026676,220.879992 406.813325,219.12001 408.52,217.2 C410.226675,215.27999 411.719994,213.520008 413,211.92 C413.053521,211.845071 413.106504,211.778198 413.158951,211.719382 C417.148223,206.688424 420.721871,202.488671 423.88,199.12 C427.080016,195.70665 430.599981,193.253341 434.44,191.76 C437.426682,190.586661 439.986656,190.106666 442.12,190.32 C444.253344,190.533334 445.479998,191.066662 445.8,191.92 C446.333336,193.84001 444.413355,195.653325 440.04,197.36 C439.29333,199.173342 438.893334,201.253322 438.84,203.6 C438.786666,205.946678 438.76,208.373321 438.76,210.88 C438.76,213.386679 438.653334,215.866654 438.44,218.32 C438.226666,220.773346 437.586672,223.013323 436.52,225.04 C439.826683,223.333325 442.51999,221.493343 444.6,219.52 C446.68001,217.546657 448.946654,215.013349 451.4,211.92 C452.040003,211.17333 452.519998,211.226662 452.84,212.08 C453.693338,214.320011 453.533339,216.186659 452.36,217.68 C449.586653,221.200018 446.57335,224.213321 443.32,226.72 C440.06665,229.226679 436.14669,231.279992 431.56,232.88 C429.533323,235.120011 427.053348,236.826661 424.12,238 C421.186652,239.173339 418.173349,239.76 415.08,239.76 C412.733322,239.76 410.89334,239.38667 409.56,238.64 C408.22666,237.89333 407.56,236.880006 407.56,235.6 C407.56,233.67999 409.079985,231.946674 412.12,230.4 C415.160015,228.853326 418.919978,227.973334 423.4,227.76 C424.466672,226.373326 425.213331,224.560011 425.64,222.32 C426.066669,220.079989 426.413332,217.733346 426.68,215.28 C426.946668,212.826654 427.213332,210.373346 427.48,207.92 C427.746668,205.466654 428.306662,203.28001 429.16,201.36 C427.23999,202.640006 425.133345,204.506654 422.84,206.96 C420.546655,209.413346 417.586685,212.986643 413.96,217.68 Z" id="Vegas" fill="#728F9C" sketch:type="MSShapeGroup"></path>
        </g>
    </g>
</svg>